<?xml version="1.0" encoding="UTF-8" standalone="no"?>
<svg
   xmlns:dc="http://purl.org/dc/elements/1.1/"
   xmlns:cc="http://creativecommons.org/ns#"
   xmlns:rdf="http://www.w3.org/1999/02/22-rdf-syntax-ns#"
   xmlns:svg="http://www.w3.org/2000/svg"
   xmlns="http://www.w3.org/2000/svg"
   viewBox="0 0 1365.3333 1024"
   height="1024"
   width="1365.3333"
   xml:space="preserve"
   id="svg2"
   version="1.1"><metadata
     id="metadata8"><rdf:RDF><cc:Work
         rdf:about=""><dc:format>image/svg+xml</dc:format><dc:type
           rdf:resource="http://purl.org/dc/dcmitype/StillImage" /></cc:Work></rdf:RDF></metadata><defs
     id="defs6"><clipPath
       id="clipPath20"
       clipPathUnits="userSpaceOnUse"><path
         id="path18"
         d="M 0,0 H 1024 V 768 H 0 Z" /></clipPath></defs><g
     transform="matrix(1.3333333,0,0,-1.3333333,0,1024)"
     id="g10"><g
       id="g12" /><g
       id="g14"><g
         clip-path="url(#clipPath20)"
         id="g16"><path
           id="path22"
           style="fill:#ffffff;fill-opacity:1;fill-rule:nonzero;stroke:none"
           d="M 0,768 H 1024 V 0 H 0 Z" /><g
           transform="matrix(1,0,0,-1,40.30634,456.8853)"
           id="g24"><path
             id="path26"
             style="fill:none;stroke:#44fdbc;stroke-width:29;stroke-linecap:butt;stroke-linejoin:miter;stroke-miterlimit:4;stroke-dasharray:none;stroke-opacity:1"
             d="m 0,86.67799 c 45.08235,76.39161 108.3548,78.96171 154.7515,6.28613 17.6049,-27.57619 32.7151,-66.31797 54.5172,-73.43528 24.8572,-8.11468 46.3954,27.61624 68.4026,53.00667 28.2912,32.64039 60.1173,48.41879 92.1501,45.75289 30.4719,-6.2702 60.0958,-27.33412 86.4252,-62.36764 C 474.709,31.35495 492.7524,-0.9323837 514.8966,0.02061407 552.221,1.626908 572.1732,89.77786 606.0978,116.1707 c 22.4165,17.4397 47.5019,6.0673 64.7172,-29.34127 6.4763,-11.80262 13.962,-20.78366 22.0387,-26.44109 52.5337,-36.79788 99.2979,63.40416 152.1976,80.92316 35.2786,11.6834 69.7835,-13.8596 99.6544,-49.93747" /></g></g></g></g></svg>